# xmcd
#
# Track frame offsets:
#	150
#	13748
#	28536
#	37368
#	54683
#	68954
#	83607
#	97556
#	120332
#	132243
#	144531
#	157056
#	171266
#	188446
#	202131
#	212824
#
# Disc length: 3013 seconds
#
# Revision: 1
# Processed by: cddbd v1.4PL0 Copyright (c) Steve Scherf et al.
# Submitted via: audiograbber 1.80
#
DISCID=df0bc310
DTITLE=Richard Clayderman - Succès - CD2
DYEAR=1900
DGENRE=
TTITLE0=Barcarolle
TTITLE1=Feelings
TTITLE2=Elisabethan Serenade
TTITLE3=My Way
TTITLE4=Hymne à la joie
TTITLE5=La mer
TTITLE6=Blue Eyes
TTITLE7=Rhapsody in Blue
TTITLE8=Summertime
TTITLE9=Ave Maria
TTITLE10=Largo
TTITLE11=Romance
TTITLE12=Warsaw Concerto
TTITLE13=Love Story
TTITLE14=Mandy
TTITLE15=Bright Eyes
EXTD=Produced by Paul de Senneville and Olivier Toussaint.
EXTT0=
EXTT1=
EXTT2=
EXTT3=
EXTT4=
EXTT5=
EXTT6=
EXTT7=
EXTT8=
EXTT9=
EXTT10=
EXTT11=
EXTT12=
EXTT13=
EXTT14=
EXTT15=
PLAYORDER=
